<svg xmlns="http://www.w3.org/2000/svg" xmlns:xlink="http://www.w3.org/1999/xlink" preserveAspectRatio="xMidYMid" width="44" height="44" viewBox="0 0 44 44">
  <defs>
    <style>

      .cls-2 {
        fill: #808080;
      }
    </style>
  </defs>
  <path d="M34.840,13.177 C34.840,13.177 27.986,19.967 27.986,19.967 C27.986,19.967 23.766,15.795 23.766,15.795 C23.766,15.795 30.505,9.118 30.505,9.118 C30.505,9.118 31.514,4.913 31.514,4.913 C31.514,4.913 39.929,-0.005 39.929,-0.005 C39.929,-0.005 43.814,3.869 43.814,3.869 C43.814,3.869 38.860,12.228 38.860,12.228 C38.860,12.228 34.840,13.177 34.840,13.177 ZM37.817,31.807 C41.230,31.807 43.997,34.533 43.997,37.896 C43.997,41.258 41.230,43.984 37.817,43.984 C34.405,43.984 31.638,41.258 31.638,37.896 C31.638,37.287 31.732,36.700 31.900,36.146 C31.900,36.146 11.536,16.081 11.536,16.081 C11.536,16.081 4.927,16.081 4.927,16.081 C4.927,16.081 0.626,11.805 0.626,11.805 C0.626,11.805 0.627,4.084 0.627,4.084 C0.627,4.084 6.550,9.920 6.550,9.920 C6.550,9.920 9.982,6.538 9.982,6.538 C9.982,6.538 4.058,0.701 4.058,0.701 C4.058,0.701 11.777,0.701 11.777,0.701 C11.777,0.701 16.076,4.976 16.076,4.976 C16.076,4.976 16.077,11.412 16.077,11.412 C16.077,11.412 36.858,31.888 36.858,31.888 C37.172,31.840 37.490,31.807 37.817,31.807 ZM35.033,37.896 C35.033,39.408 36.282,40.639 37.817,40.639 C39.352,40.639 40.601,39.408 40.601,37.896 C40.601,36.383 39.352,35.153 37.817,35.153 C36.282,35.153 35.033,36.383 35.033,37.896 ZM2.704,31.681 C2.704,31.681 13.079,21.313 13.079,21.313 C13.079,21.313 22.535,30.730 22.535,30.730 C22.535,30.730 12.194,41.064 12.194,41.064 C12.194,41.064 12.196,41.066 12.196,41.066 C10.225,43.007 8.291,43.763 6.560,43.763 C4.761,43.763 3.182,42.946 2.012,41.793 C-0.333,39.483 -1.201,35.532 2.706,31.682 C2.706,31.682 2.704,31.681 2.704,31.681 ZM4.412,39.427 C4.788,39.797 5.566,40.418 6.560,40.418 C7.749,40.418 8.915,39.548 9.710,38.783 C9.731,38.761 9.752,38.739 9.774,38.717 C9.774,38.717 17.828,30.675 17.828,30.675 C17.828,30.675 13.148,26.014 13.148,26.014 C13.148,26.014 5.218,33.933 5.218,33.933 C5.182,33.972 5.145,34.010 5.107,34.048 C4.324,34.819 3.394,36.005 3.410,37.274 C3.422,38.300 4.043,39.064 4.412,39.427 Z" id="path-1" class="cls-2" fill-rule="evenodd"/>
</svg>
