<svg xmlns="http://www.w3.org/2000/svg" xmlns:xlink="http://www.w3.org/1999/xlink" preserveAspectRatio="xMidYMid" width="44" height="44" viewBox="0 0 48 48">
  <defs>
    <style>

      .cls-2 {
        fill: #808080;
      }
    </style>
  </defs>
  <path d="M47.998,42.459 C47.998,42.459 42.459,47.998 42.459,47.998 C42.459,47.998 34.495,40.035 34.495,40.035 C30.941,42.506 26.628,43.960 21.980,43.960 C12.028,43.960 3.604,37.309 0.908,28.219 C0.321,26.240 0.000,24.148 0.000,21.980 C0.000,17.419 1.398,13.178 3.786,9.662 C7.744,3.836 14.422,0.001 21.980,0.001 C34.100,0.001 43.960,9.861 43.960,21.980 C43.960,26.628 42.507,30.941 40.035,34.495 C40.035,34.495 47.998,42.459 47.998,42.459 ZM40.957,21.980 C40.957,11.517 32.444,3.004 21.980,3.004 C15.834,3.004 10.378,5.954 6.908,10.498 C4.470,13.690 3.004,17.663 3.004,21.980 C3.004,24.168 3.395,26.262 4.079,28.219 C6.668,35.623 13.705,40.957 21.980,40.957 C32.444,40.957 40.957,32.444 40.957,21.980 ZM34.931,27.828 C34.931,27.828 33.070,28.632 33.070,28.632 C32.590,28.840 31.950,28.947 31.369,28.947 C31.369,28.947 27.007,28.947 27.007,28.947 C27.280,28.199 27.430,27.390 27.430,26.546 C27.430,22.755 24.417,19.671 20.714,19.671 C17.011,19.671 13.998,22.755 13.998,26.546 C13.998,27.123 14.068,27.683 14.200,28.219 C14.200,28.219 6.230,28.219 6.230,28.219 C6.142,27.999 6.048,27.783 5.969,27.558 C5.330,25.730 5.006,23.854 5.006,21.980 C5.006,18.256 6.214,14.706 8.499,11.713 C8.630,11.541 8.769,11.377 8.905,11.211 C11.954,12.357 14.798,13.845 17.267,15.633 C17.267,15.633 32.030,18.036 35.116,20.880 C35.387,21.129 35.541,21.483 35.541,21.855 C35.541,21.855 35.541,26.886 35.541,26.886 C35.541,27.297 35.301,27.668 34.931,27.828 ZM20.714,21.308 C23.540,21.308 25.831,23.653 25.831,26.546 C25.831,29.443 23.537,31.784 20.714,31.784 C17.897,31.784 15.597,29.450 15.597,26.546 C15.597,23.653 17.888,21.308 20.714,21.308 Z" id="path-1" class="cls-2" fill-rule="evenodd"/>
</svg>
