<svg xmlns="http://www.w3.org/2000/svg" xmlns:xlink="http://www.w3.org/1999/xlink" preserveAspectRatio="xMidYMid" width="44" height="44" viewBox="0 0 50 50">
  <defs>
    <style>

      .cls-2 {
        fill: #808080;
      }
    </style>
  </defs>
  <path d="M22.165,49.997 C22.165,49.997 0.001,27.833 0.001,27.833 C0.001,27.833 27.833,0.001 27.833,0.001 C27.833,0.001 40.916,0.001 40.916,0.001 C40.916,0.001 49.997,9.082 49.997,9.082 C49.997,9.082 49.997,22.165 49.997,22.165 C49.997,22.165 22.165,49.997 22.165,49.997 ZM46.992,10.327 C46.992,10.327 39.671,3.006 39.671,3.006 C39.671,3.006 29.077,3.006 29.077,3.006 C29.077,3.006 4.251,27.833 4.251,27.833 C4.251,27.833 22.165,45.747 22.165,45.747 C22.165,45.747 46.992,20.920 46.992,20.920 C46.992,20.920 46.992,10.327 46.992,10.327 ZM15.348,36.606 C15.348,36.606 13.540,34.799 13.540,34.799 C13.540,34.799 15.837,32.502 15.837,32.502 C14.359,30.676 13.658,28.842 13.733,27.000 C13.809,25.158 14.631,23.453 16.200,21.884 C16.200,21.884 20.031,25.715 20.031,25.715 C19.167,26.579 18.701,27.428 18.633,28.262 C18.565,29.096 18.883,29.865 19.588,30.570 C20.104,31.085 20.662,31.337 21.265,31.326 C21.868,31.314 22.438,31.040 22.976,30.501 C23.575,29.903 23.897,29.285 23.942,28.648 C23.988,28.012 23.791,27.171 23.351,26.125 C22.912,25.079 22.532,24.086 22.214,23.146 C21.896,22.206 21.714,21.304 21.668,20.440 C21.623,19.576 21.748,18.754 22.044,17.973 C22.339,17.193 22.870,16.420 23.635,15.654 C24.916,14.373 26.403,13.750 28.097,13.784 C29.791,13.818 31.426,14.487 33.003,15.791 C33.003,15.791 35.401,13.392 35.401,13.392 C35.401,13.392 37.209,15.199 37.209,15.199 C37.209,15.199 34.765,17.644 34.765,17.644 C35.947,19.235 36.466,20.895 36.322,22.623 C36.178,24.351 35.386,25.935 33.946,27.375 C33.946,27.375 30.104,23.533 30.104,23.533 C30.892,22.744 31.347,21.987 31.468,21.259 C31.589,20.531 31.369,19.887 30.809,19.326 C30.308,18.826 29.763,18.595 29.171,18.633 C28.580,18.671 28.008,18.966 27.455,19.520 C26.894,20.080 26.608,20.685 26.597,21.333 C26.585,21.981 26.782,22.807 27.188,23.811 C27.593,24.815 27.948,25.791 28.251,26.739 C28.554,27.686 28.728,28.592 28.774,29.456 C28.819,30.320 28.698,31.153 28.410,31.957 C28.122,32.760 27.595,33.544 26.830,34.310 C25.534,35.606 24.066,36.252 22.425,36.248 C20.784,36.244 19.187,35.602 17.633,34.321 C17.633,34.321 15.348,36.606 15.348,36.606 ZM39.277,7.981 C40.598,7.981 41.670,9.052 41.670,10.373 C41.670,11.695 40.598,12.766 39.277,12.766 C37.956,12.766 36.885,11.695 36.885,10.373 C36.885,9.052 37.956,7.981 39.277,7.981 Z" id="path-1" class="cls-2" fill-rule="evenodd"/>
</svg>
