<?xml version="1.0" encoding="utf-8"?>
<!-- Generator: Adobe Illustrator 20.1.0, SVG Export Plug-In . SVG Version: 6.00 Build 0)  -->
<svg version="1.1" id="Layer_1" xmlns="http://www.w3.org/2000/svg" xmlns:xlink="http://www.w3.org/1999/xlink" x="0px" y="0px"
	 width="44px" height="44px" viewBox="0 0 44 44" style="enable-background:new 0 0 44 44;" xml:space="preserve">
<style type="text/css">
	.st0{fill:#808080;}
</style>
<title>trade-in-value</title>
<g>
	<polygon class="st0" points="34.6,7.5 33.5,0.9 28,6.4 	"/>
	<path class="st0" d="M23.2,35.3v-3c3.5-0.4,6.1-2.6,6.1-6.1c0-3.6-2.7-5.5-6.1-6.6v-5.3c1.5,0.2,2.2,1.7,2.2,3.1h3.8
		c0.1-4.2-2.4-6.3-5.9-6.6V8h-1.9v2.8c-3.5,0.3-6,2.4-6,5.7c0,4,2.5,5.2,6,6.5v6c-1.6-0.3-2.8-1.7-2.8-3.3h-3.7c0,0.1,0,0.1,0,0.2
		c0,3.6,2.9,6.6,6.6,6.6v3L23.2,35.3z M23.2,23.5c1.3,0.5,2.3,1.3,2.3,2.6c0,1.3-1,2.4-2.3,2.6V23.5z M19.1,16.4
		c0-0.9,0.6-1.9,2.2-2.2v4.7C20.2,18.5,19.1,17.8,19.1,16.4z"/>
	<path class="st0" d="M14.8,5.2c4.6-2,9.8-2,14.4,0L32,2.4C21.2-3.2,8,1.1,2.4,11.9c-3.2,6.3-3.2,13.7,0,20l2.8-2.8
		C1.2,19.9,5.5,9.1,14.8,5.2z"/>
	<path class="st0" d="M41.6,11.8l-2.8,2.8c4,9.3-0.3,20-9.6,24c-4.5,2-9.7,2-14.2,0.1l0.6-0.6L8.5,37l1.1,7.1l2.6-2.6
		c10.8,5.4,23.9,1.1,29.4-9.7C44.8,25.5,44.8,18.1,41.6,11.8z"/>
</g>
</svg>
